<svg width="24" height="18" viewBox="0 0 24 18" fill="none" xmlns="http://www.w3.org/2000/svg">
<path d="M22.6414 2.36291H22.1681V2.02289C22.1681 1.535 21.9038 1.09024 21.4781 0.861969C18.633 -0.663682 14.8174 -0.121204 12 2.14976C9.18225 -0.121204 5.3655 -0.662944 2.52187 0.861969C2.09588 1.09024 1.8315 1.535 1.8315 2.02326V2.36328H1.35862C0.609375 2.36291 0 2.96218 0 3.69901V16.6639C0 17.4007 0.609375 18 1.35862 18H12C12.0919 18 12.1845 17.9816 12.2719 17.9443C12.3435 17.9133 12.405 17.8691 12.4601 17.8186C12.4605 17.8197 12.4612 17.8204 12.4616 17.8219C14.6962 15.7855 17.8417 15.0855 20.2871 16.0823C20.7105 16.2549 21.1897 16.2081 21.5685 15.9595C21.9439 15.7124 22.1681 15.299 22.1681 14.8536V3.69901H22.6414V16.6639H14.9213C14.5463 16.6639 14.2421 16.963 14.2421 17.3318C14.2421 17.7005 14.5463 17.9996 14.9213 17.9996H22.6414C23.3906 17.9996 24 17.4004 24 16.6635V3.69901C24 2.96218 23.3906 2.36291 22.6414 2.36291ZM1.35862 3.69901H2.511C2.88637 3.69901 3.19012 3.39993 3.19012 3.03114L3.17212 2.03543C5.59575 0.734739 8.90775 1.27205 11.3209 3.32949V15.9415C8.8215 14.2425 5.75925 13.8022 3.19012 14.8539V5.30247C3.19012 4.93332 2.886 4.63461 2.511 4.63461C2.136 4.63461 1.83188 4.93369 1.83188 5.30247V14.8539C1.83188 15.2998 2.05613 15.7128 2.43187 15.9599C2.81138 16.2092 3.29062 16.2549 3.71362 16.082C5.61263 15.3079 7.93125 15.5609 9.9195 16.6643H1.35862V3.69901ZM20.8069 14.8477C18.24 13.8007 15.1785 14.2451 12.6795 15.9444V3.33613C15.093 1.27722 18.4024 0.734002 20.8102 2.02326L20.8069 14.8477Z" fill="#A7A7A7"/>
</svg>
