<svg width="22" height="22" viewBox="0 0 22 22" fill="none" xmlns="http://www.w3.org/2000/svg">
<path d="M21.0833 16.9583H18.6423C18.2453 15.6374 17.0317 14.6667 15.5833 14.6667C14.135 14.6667 12.9223 15.6374 12.5244 16.9583H0.916652C0.410652 16.9583 0 17.369 0 17.875C0 18.381 0.410652 18.7917 0.916652 18.7917H12.5244C12.9213 20.1126 14.135 21.0833 15.5833 21.0833C17.0316 21.0833 18.2444 20.1126 18.6422 18.7917H21.0833C21.5902 18.7917 22 18.381 22 17.875C22 17.369 21.5903 16.9583 21.0833 16.9583ZM15.5833 19.25C14.8253 19.25 14.2083 18.6331 14.2083 17.875C14.2083 17.1169 14.8253 16.5 15.5833 16.5C16.3414 16.5 16.9583 17.1169 16.9583 17.875C16.9583 18.6331 16.3414 19.25 15.5833 19.25Z" fill="#A7A7A7"/>
<path d="M21.0833 2.29165H18.6423C18.2444 0.97075 17.0317 0 15.5833 0C14.135 0 12.9222 0.97075 12.5244 2.29165H0.916652C0.410652 2.29165 0 2.7023 0 3.2083C0 3.7143 0.410652 4.12496 0.916652 4.12496H12.5244C12.9222 5.4459 14.135 6.41665 15.5833 6.41665C17.0317 6.41665 18.2444 5.4459 18.6423 4.125H21.0833C21.5903 4.125 22 3.71435 22 3.20835C22 2.70235 21.5903 2.29165 21.0833 2.29165ZM15.5833 4.5833C14.8252 4.5833 14.2083 3.9664 14.2083 3.2083C14.2083 2.45021 14.8252 1.8333 15.5833 1.8333C16.3414 1.8333 16.9583 2.45021 16.9583 3.2083C16.9583 3.9664 16.3414 4.5833 15.5833 4.5833Z" fill="#A7A7A7"/>
<path d="M21.0833 9.62497H9.4756C9.07775 8.30406 7.865 7.33331 6.4167 7.33331C4.96839 7.33331 3.7556 8.30406 3.35779 9.62497H0.916652C0.410652 9.62497 0 10.0356 0 10.5416C0 11.0476 0.410652 11.4583 0.916652 11.4583H3.35775C3.7556 12.7792 4.96835 13.7499 6.41665 13.7499C7.86496 13.7499 9.07775 12.7792 9.47556 11.4583H21.0833C21.5902 11.4583 22 11.0476 22 10.5416C22 10.0356 21.5903 9.62497 21.0833 9.62497ZM6.41665 11.9166C5.65856 11.9166 5.04165 11.2997 5.04165 10.5416C5.04165 9.78352 5.65856 9.16662 6.41665 9.16662C7.17475 9.16662 7.79165 9.78352 7.79165 10.5416C7.79165 11.2997 7.17475 11.9166 6.41665 11.9166Z" fill="#A7A7A7"/>
</svg>
