<svg width="17" height="20" viewBox="0 0 17 20" fill="none" xmlns="http://www.w3.org/2000/svg">
<path d="M14.053 9.88592C13.9834 9.81477 13.9003 9.75819 13.8086 9.71947C13.717 9.68075 13.6185 9.66067 13.5189 9.6604C13.4194 9.66013 13.3208 9.67968 13.2289 9.71789C13.137 9.75611 13.0536 9.81224 12.9837 9.883C12.9137 9.95377 12.8585 10.0378 12.8213 10.1301C12.7841 10.2224 12.7656 10.3212 12.767 10.4207C12.7683 10.5202 12.7895 10.6185 12.8292 10.7098C12.869 10.801 12.9265 10.8835 12.9984 10.9523C13.6347 11.5784 14.1395 12.3253 14.4832 13.1492C14.827 13.9731 15.0027 14.8573 15 15.75C15 16.6673 12.3706 18 8.25004 18C4.12946 18 1.50004 16.6667 1.50004 15.7485C1.49751 14.8619 1.67086 13.9837 2.01006 13.1646C2.34926 12.3454 2.84757 11.6017 3.47614 10.9765C3.54723 10.9072 3.60385 10.8244 3.64272 10.7331C3.68159 10.6417 3.70192 10.5435 3.70255 10.4442C3.70318 10.3449 3.68409 10.2465 3.64638 10.1547C3.60868 10.0628 3.55311 9.97936 3.4829 9.90915C3.41269 9.83894 3.32924 9.78337 3.23738 9.74567C3.14553 9.70796 3.04711 9.68887 2.94782 9.6895C2.84853 9.69013 2.75035 9.71047 2.65898 9.74933C2.56762 9.7882 2.48487 9.84482 2.41556 9.91592C1.64713 10.6803 1.03796 11.5895 0.623333 12.591C0.208704 13.5924 -0.00315065 14.6661 3.54087e-05 15.75C3.54087e-05 18.1857 4.25029 19.5 8.25004 19.5C12.2498 19.5 16.5 18.1857 16.5 15.75C16.5034 14.6588 16.2886 13.578 15.8684 12.571C15.4482 11.564 14.831 10.6511 14.053 9.88592Z" fill="#A7A7A7"/>
<path d="M8.25 10.5C9.28835 10.5 10.3034 10.1921 11.1667 9.61522C12.0301 9.03834 12.703 8.2184 13.1004 7.25909C13.4977 6.29978 13.6017 5.24418 13.3991 4.22578C13.1966 3.20738 12.6965 2.27192 11.9623 1.53769C11.2281 0.803466 10.2926 0.303452 9.27422 0.10088C8.25582 -0.101693 7.20022 0.00227474 6.24091 0.399635C5.2816 0.796995 4.46166 1.4699 3.88478 2.33326C3.30791 3.19662 3 4.21165 3 5.25C3.00161 6.6419 3.55525 7.97632 4.53946 8.96054C5.52368 9.94476 6.85811 10.4984 8.25 10.5ZM8.25 1.5C8.99168 1.5 9.7167 1.71994 10.3334 2.13199C10.9501 2.54405 11.4307 3.12972 11.7145 3.81494C11.9984 4.50016 12.0726 5.25416 11.9279 5.98159C11.7833 6.70902 11.4261 7.37721 10.9017 7.90165C10.3772 8.4261 9.70902 8.78325 8.98159 8.92795C8.25416 9.07264 7.50016 8.99838 6.81494 8.71455C6.12971 8.43072 5.54404 7.95008 5.13199 7.33339C4.71993 6.71671 4.5 5.99168 4.5 5.25C4.50117 4.2558 4.89664 3.30265 5.59964 2.59965C6.30265 1.89664 7.2558 1.50117 8.25 1.5Z" fill="#A7A7A7"/>
</svg>
